PathFileType	4	(X/Y/Z)	s09c0001.trc
DataRate	CameraRate	NumFrames	NumMarkers	Units	OrigDataRate	OrigDataStartFrame	OrigNumFrames
200	200	4	49	mm	200	1750	2000
Frame#	Time	racr			lacr			c7			jug			rlel			rdr			llel			ldr			s2			lic			ric			lasi			rasi			rpsi			lpsi			rgt			lgt			rth1			rth2			rth3			rth4			rlfc			rmfc			rsh1			rsh2			rsh3			rsh4			rlmal			rmmal			rcal			rtoe			rmt5			rmt1			lth1			lth2			lth4			lth3			llfc			lmfc			llmal			lmmal			lcal			lmt1			lmt5			lsh1			lsh2			lsh3			lsh4			ltoe			
		X1	Y1	Z1	X2	Y2	Z2	X3	Y3	Z3	X4	Y4	Z4	X5	Y5	Z5	X6	Y6	Z6	X7	Y7	Z7	X8	Y8	Z8	X9	Y9	Z9	X10	Y10	Z10	X11	Y11	Z11	X12	Y12	Z12	X13	Y13	Z13	X14	Y14	Z14	X15	Y15	Z15	X16	Y16	Z16	X17	Y17	Z17	X18	Y18	Z18	X19	Y19	Z19	X20	Y20	Z20	X21	Y21	Z21	X22	Y22	Z22	X23	Y23	Z23	X24	Y24	Z24	X25	Y25	Z25	X26	Y26	Z26	X27	Y27	Z27	X28	Y28	Z28	X29	Y29	Z29	X30	Y30	Z30	X31	Y31	Z31	X32	Y32	Z32	X33	Y33	Z33	X34	Y34	Z34	X35	Y35	Z35	X36	Y36	Z36	X37	Y37	Z37	X38	Y38	Z38	X39	Y39	Z39	X40	Y40	Z40	X41	Y41	Z41	X42	Y42	Z42	X43	Y43	Z43	X44	Y44	Z44	X45	Y45	Z45	X46	Y46	Z46	X47	Y47	Z47	X48	Y48	Z48	X49	Y49	Z49	
1750	8.7500	280.664612	1352.936646	381.364746	283.022919	1335.552612	-11.426284	229.210480	1402.148193	181.674225	352.732941	1351.115601	180.931259	295.996582	1092.787842	448.185608	361.830505	879.356750	578.408875	274.255005	1051.550781	-47.267372	400.286865	897.344177	-195.361191	220.859100	941.238953	184.427917	351.208160	991.015137	47.969318	339.137573	1002.632263	337.635864	409.242767	955.298218	79.438194	399.098602	966.033081	318.856689	224.258072	978.493103	243.974091	224.955353	974.673584	133.414810	325.039246	846.878113	385.741638	329.527374	836.865662	10.477251	348.290741	716.382385	381.566925	364.019867	630.903931	368.050629	332.228424	548.399231	358.522369	394.631989	629.458496	348.258759	318.870819	450.998352	334.811279	301.577667	431.005066	236.798431	278.094391	361.123260	367.957855	302.227234	274.045624	359.606659	279.192017	189.278229	361.216583	327.907715	276.883972	329.575592	276.760681	86.739250	360.327972	286.157257	93.464569	283.788574	219.182007	32.003670	318.052246	471.933105	86.064140	354.327484	388.171570	49.240673	407.092468	400.982544	39.253235	297.140747	340.065216	710.740540	8.964671	355.130157	629.071716	25.909710	390.934601	627.009521	39.862137	326.577789	543.825439	34.568001	308.765015	449.217865	46.892277	317.531311	429.089874	139.983429	268.495483	84.999046	21.772207	291.184692	96.198906	92.412132	218.682373	26.717772	68.096146	406.277039	43.988056	87.221512	381.408539	33.824608	-18.414778	277.917480	355.170197	17.344286	295.831451	270.387146	21.226030	274.336212	198.343170	14.739766	322.963623	270.776794	50.339104	472.547852	79.197159	36.484688	
1751	8.7550	280.658447	1352.930054	381.386017	283.023834	1335.552856	-11.427198	229.184464	1402.150269	181.707077	352.717468	1351.108276	180.943176	295.995789	1092.788574	448.184540	361.841980	879.347229	578.389526	274.263306	1051.545288	-47.268448	400.273285	897.341492	-195.354019	220.872101	941.238037	184.425064	351.208710	991.027771	47.970791	339.132416	1002.635803	337.635681	409.213409	955.305664	79.434128	399.099091	966.026855	318.851105	224.269135	978.494690	243.963165	224.945953	974.680420	133.417923	325.029419	846.877319	385.745117	329.504395	836.867798	10.474033	348.290375	716.398926	381.561890	364.037781	630.853516	368.059418	332.229584	548.397461	358.521423	394.642944	629.458801	348.258087	318.894836	451.010712	334.814575	301.603088	431.031830	236.790268	278.093658	361.124664	367.958313	302.218811	274.043213	359.588379	279.190460	189.285400	361.205139	327.887512	276.893280	329.588531	276.779083	86.721680	360.317963	286.137268	93.462181	283.790436	219.157394	32.014172	318.051971	471.922607	86.078827	354.329956	388.184998	49.247486	407.106903	401.004059	39.270794	297.155823	340.161865	710.610107	8.956291	355.146606	629.068359	25.906013	390.952179	627.023438	39.853092	326.591309	543.825928	34.563503	308.758667	449.141571	46.961155	317.530304	429.092712	139.983749	268.507935	84.971924	21.785143	291.173126	96.197105	92.415657	218.696487	26.713669	68.099846	406.281311	43.982155	87.221474	381.425934	33.804535	-18.435568	277.927521	355.164825	17.343889	295.830048	270.386108	21.237059	274.322601	198.337418	14.724827	322.941406	270.747742	50.361328	472.556671	79.186623	36.457268	
1752	8.7600	280.655701	1352.916992	381.379181	283.024384	1335.552368	-11.428016	229.184479	1402.150269	181.707077	352.720032	1351.103394	180.947037	296.012939	1092.759644	448.165833	361.879578	879.334595	578.366333	274.266632	1051.540161	-47.258163	400.283356	897.341614	-195.342834	220.880951	941.225891	184.437683	351.205414	991.022339	47.967003	339.159790	1002.629028	337.644379	409.219360	955.291504	79.424400	399.098206	966.035034	318.857269	224.253174	978.510559	243.974075	224.950912	974.662598	133.417374	325.039276	846.877502	385.738983	329.520691	836.867859	10.459764	348.305969	716.382019	381.573273	364.046997	630.902405	368.027313	332.230560	548.390137	358.527771	394.641479	629.456970	348.260590	318.885742	450.990448	334.824036	301.594666	431.021667	236.819473	278.086761	361.129272	367.952789	302.221130	274.041046	359.602264	279.206726	189.272263	361.201843	327.908081	276.884399	329.576111	276.761383	86.740517	360.324585	286.125336	93.460800	283.788483	219.181595	32.023029	318.054199	471.924652	86.065422	354.326569	388.186340	49.243443	407.093872	401.008667	39.271442	297.139069	340.165710	710.607239	8.971932	355.149048	629.061462	25.934669	390.921875	627.054626	39.789848	326.576660	543.828125	34.556770	308.753876	449.136902	46.972649	317.552399	429.085205	139.998138	268.525055	84.989426	21.775169	291.188293	96.190887	92.411583	218.698380	26.705734	68.111534	406.278564	43.992817	87.224297	381.422119	33.838108	-18.436069	277.928009	355.164459	17.349030	295.830505	270.384613	21.236990	274.320618	198.339401	14.731451	322.945312	270.756683	50.350819	472.556946	79.170624	36.454350	
1753	8.7650	280.662231	1352.916138	381.384460	283.004211	1335.553345	-11.435975	229.191742	1402.141479	181.693878	352.707855	1351.106079	180.943497	296.015594	1092.756104	448.151062	361.892090	879.330383	578.345642	274.265472	1051.542236	-47.256603	400.278412	897.330933	-195.331039	220.890717	941.224182	184.416458	351.207336	991.023743	47.965706	339.135010	1002.634033	337.635803	409.230743	955.293579	79.427505	399.099854	966.032959	318.843445	224.259949	978.493408	243.969498	224.943390	974.677307	133.427612	325.040192	846.875549	385.738525	329.526733	836.853882	10.469972	348.287598	716.398743	381.568268	364.036377	630.913757	368.038849	332.224915	548.398804	358.531525	394.642944	629.458801	348.258087	318.869385	451.004486	334.801331	301.579620	431.001221	236.799255	278.097076	361.123016	367.961090	302.235870	274.043854	359.601990	279.205292	189.274612	361.204254	327.919983	276.894714	329.596039	276.772614	86.748123	360.334351	286.138885	93.460129	283.793060	219.157120	32.023968	318.047974	471.929810	86.080666	354.330261	388.170807	49.245674	407.099457	401.005310	39.269604	297.156860	340.159760	710.606079	8.977277	355.139557	629.063660	25.927427	390.940308	627.035095	39.836208	326.591644	543.808472	34.564751	308.754517	449.128815	46.968094	317.537567	429.105530	140.004578	268.519165	84.990791	21.781296	291.174652	96.193192	92.419006	218.715820	26.697725	68.095589	406.284393	43.978237	87.221100	381.457550	33.817921	-18.418997	277.904358	355.165344	17.341570	295.826538	270.364288	21.250761	274.324371	198.331299	14.796782	322.956451	270.787903	50.342625	472.563446	79.197105	36.463821	
